M48
METRIC,LZ,000.000
;FILE_FORMAT=3:3
;TYPE=NON_PLATED
;Layer: NPTH_Through
;EasyEDA v6.5.22, 2024-12-29 16:03:25
;169c191247044cb9b78cd4df34f3aa46,fc1e3732016e4acc899c86b879ae2791,10
;Gerber Generator version 0.2
;Holesize 1 = 0.800 mm
T01C0.800
%
G05
G90
T01
X016750Y017500
X018250Y017500
X053250Y017500
X051750Y017500
X086750Y017500
X088250Y017500
X121750Y017500
X158250Y017500
X123250Y017500
X156750Y017500
X156750Y052500
X123250Y052500
X158250Y052500
X121750Y052500
X088250Y052500
X086750Y052500
X051750Y052500
X053250Y052500
X018250Y052500
X016750Y052500
X016750Y122500
X018250Y122500
X053250Y122500
X051750Y122500
X086750Y122500
X088250Y122500
X121750Y122500
X158250Y122500
X123250Y122500
X156750Y122500
X156750Y087500
X123250Y087500
X158250Y087500
X121750Y087500
X088250Y087500
X086750Y087500
X051750Y087500
X053250Y087500
X018250Y087500
X016750Y087500
X156749Y157500
X123250Y157500
X158250Y157500
X121750Y157500
X088250Y157500
X086750Y157500
X051750Y157500
X053250Y157500
X018250Y157500
X016750Y157500
M30
